<?xml version="1.0" encoding="UTF-8" standalone="no"?>
<svg
   height="500"
   version="1.1"
   width="500"
   id="svg24"
   xmlns="http://www.w3.org/2000/svg"
   xmlns:svg="http://www.w3.org/2000/svg">
  <defs
     id="defs1" />
  <path
     d="m 718,0 -1,1 h -12 l -1,1 h -11 l -1,1 h -11 l -1,1 h -12 l -1,1 h -11 l -1,1 h -11 l -1,1 h -11 l -1,1 h -12 l -1,1 h -12 l -1,1 h -9 l -1,1 h -11 l -1,1 h -12 l -1,1 h -13 l -1,1 h -11 l -1,1 h -11 l -1,1 h -13 l -1,1 h -12 l -1,1 h -13 l -1,1 h -13 l -1,1 h -16 l -1,1 h -9 l -1,1 h -15 l -1,1 h -13 l -1,1 h -12 l -1,1 h -12 l -1,1 h -13 l -1,1 h -18 l -1,1 h -12 l -1,1 h -6 l -1,1 h -7 l -1,1 h -12 l -1,1 h -12 l -1,1 h -14 l -1,1 h -11 l -1,1 h -14 l -1,1 h -14 l -1,1 h -14 l -1,1 h -14 l -1,1 h -14 l -1,1 h -14 l -1,1 h -14 l -1,1 h -15 l -1,1 h -16 l -1,1 h -14 l -1,1 h -15 l -1,1 H 96 l -1,1 H 82 l -1,1 H 65 l -1,1 H 50 l -1,1 H 35 l -1,1 H 20 l -1,1 H 7 L 6,53 H 4 l -3,3 v 2 l -1,1 v 9 l 1,1 v 2 l 4,4 h 8 l 1,-1 h 12 l 1,-1 h 13 l 1,-1 h 14 l 1,-1 h 13 l 1,-1 h 12 l 1,-1 h 14 l 1,-1 h 13 l 1,-1 h 12 l 1,-1 h 13 l 1,-1 h 14 l 1,-1 h 12 l 1,-1 h 13 l 1,-1 h 13 l 1,-1 h 13 l 1,-1 h 14 l 1,-1 h 11 l 1,-1 h 13 l 1,-1 h 14 l 1,-1 h 13 l 1,-1 h 13 l 1,-1 h 13 l 1,-1 h 14 l 1,-1 h 10 l 1,1 v 4 l -1,1 v 8 l -1,1 h -1 l -1,-1 h -3 l -1,1 h -4 l -1,1 h -1 l -2,2 v 2 l -1,1 v 8 l 2,2 h 1 l 1,1 h 7 l 1,1 v 1 l -1,1 v 2 l -1,1 v 3 l -1,1 v 2 l -1,1 v 3 l -1,1 v 2 l -1,1 v 3 l -1,1 v 3 l -1,1 v 2 l -1,1 v 2 l -1,1 v 3 l -1,1 v 2 l -1,1 v 3 l -1,1 v 2 l -1,1 v 3 l -1,1 v 2 l -1,1 v 3 l -1,1 v 2 l -1,1 v 2 l -1,1 v 3 l -1,1 v 2 l -1,1 v 3 l -1,1 v 2 l -1,1 v 2 l -1,1 v 3 l -1,1 v 2 l -1,1 v 2 l -1,1 v 2 l -1,1 v 2 l -1,1 v 2 l -2,2 h -11 l -1,-1 h -32 l -1,1 h -11 l -1,1 h -6 l -1,1 h -6 l -1,1 h -4 l -1,1 h -4 l -1,1 h -3 l -1,1 h -3 l -1,1 h -3 l -1,1 h -2 l -1,1 h -2 l -1,1 h -2 l -1,1 h -2 l -1,1 h -2 l -1,1 h -1 l -1,1 h -2 l -1,1 h -1 l -1,1 h -1 l -1,1 h -1 l -1,1 h -2 l -1,1 h -1 l -1,1 h -1 l -1,1 h -1 l -1,1 h -1 l -2,2 h -1 l -1,1 h -1 l -1,1 h -1 l -2,2 h -1 l -2,2 h -1 l -1,1 h -1 l -2,2 h -1 l -3,3 h -1 l -2,2 h -1 l -3,3 h -1 l -4,4 h -1 l -5,5 h -1 l -22,22 v 1 l -8,8 v 1 l -7,7 h -1 l -5,5 h -1 l -3,3 h -1 l -3,3 h -1 l -4,4 h -1 l -3,3 h -1 l -3,3 h -1 l -4,4 h -1 l -4,4 h -1 l -4,4 h -1 l -6,6 v 1 l -3,3 v 1 l -1,1 v 1 l -1,1 v 2 l -1,1 v 9 l 1,1 v 2 l 1,1 v 1 l 3,3 v 1 h 1 l 4,4 h 1 l 2,2 h 1 l 1,1 h 1 l 1,1 h 1 l 1,1 h 1 l 1,1 h 2 l 1,1 h 2 l 1,1 h 2 l 1,1 h 3 l 1,1 h 3 l 1,1 h 3 l 1,1 h 4 l 1,1 h 6 l 2,2 v 1 l -1,1 v 2 l -1,1 v 2 l -1,1 h -3 l -1,1 h -3 l -1,1 h -2 l -1,1 h -1 l -2,2 h -1 l -6,6 v 1 l -1,1 v 1 l -1,1 v 1 l -1,1 v 2 l -1,1 v 3 l -1,1 v 6 l 1,1 v 4 l 1,1 v 2 l 1,1 v 1 l 1,1 v 1 l 3,3 v 1 l 3,3 h 1 l 2,2 h 1 l 1,1 h 1 l 1,1 h 2 l 1,1 h 3 l 1,1 h 7 l 1,-1 h 3 l 1,-1 h 2 l 1,-1 h 1 l 1,-1 h 1 l 8,-8 v -1 l 1,-1 v -1 l 1,-1 v -1 l 1,-1 v -2 l 1,-1 v -13 l -1,-1 v -2 l -1,-1 v -2 l -1,-1 v -1 l -2,-2 v -1 l -4,-4 h -1 l -2,-2 h -1 l -2,-2 v -2 l 1,-1 v -3 l 1,-1 v -2 l 2,-2 1,1 h 11 l 1,1 h 27 l 1,1 h 43 l 1,-1 h 18 l 1,-1 h 10 l 1,-1 h 9 l 1,-1 h 7 l 1,-1 h 6 l 1,-1 h 6 l 1,-1 h 6 l 1,-1 h 5 l 1,-1 h 4 l 1,-1 h 5 l 1,-1 h 3 l 1,-1 h 4 l 1,-1 h 3 l 1,-1 h 4 l 1,-1 h 3 l 1,-1 h 3 l 1,-1 h 2 l 1,-1 h 3 l 1,-1 h 3 l 1,-1 h 2 l 1,-1 h 3 l 1,-1 h 1 l 1,-1 24,24 v 1 l -1,1 h -1 l -1,1 v 1 l -3,3 v 1 l -2,2 v 1 l -1,1 v 1 l -1,1 v 2 l -1,1 v 4 l -1,1 v 8 l 1,1 v 4 l 1,1 v 2 l 1,1 v 1 l 1,1 v 1 l 1,1 v 1 l 2,2 v 1 l 6,6 h 1 l 2,2 h 1 l 1,1 h 1 l 1,1 h 1 l 1,1 h 1 l 1,1 h 4 l 1,1 h 9 l 1,-1 h 4 l 1,-1 h 2 l 1,-1 h 1 l 1,-1 h 1 l 1,-1 h 1 l 4,-4 h 1 l 1,-1 v -1 l 3,-3 v -1 l 1,-1 v -1 l 1,-1 v -1 l 2,-2 h 2 l 1,-1 h 3 l 1,-1 h 2 l 1,-1 h 3 l 1,-1 h 3 l 1,-1 h 2 l 1,-1 h 2 l 1,-1 h 2 l 1,-1 h 2 v -1 l 2,-2 v -3 l 1,-1 v -1 l -1,-1 v -1 l -1,-1 v -1 l -3,-3 h -2 l -1,-1 h -3 l -1,-1 h -3 l -1,-1 h -3 l -1,-1 h -3 l -1,-1 h -3 l -1,-1 h -2 l -1,-1 h -4 l -3,-3 v -1 l -3,-3 h -1 l -3,-3 h -1 l -1,-1 h -1 l -1,-1 h -1 l -1,-1 h -2 l -1,-1 h -3 l -1,-1 h -9 l -2,-2 v -1 l -21,-21 2,-2 h 1 l 1,-1 h 2 l 1,-1 h 1 l 1,-1 h 1 l 1,-1 h 2 l 1,-1 h 1 l 1,-1 h 1 l 1,-1 h 1 l 1,-1 h 1 l 1,-1 h 1 l 1,-1 h 1 l 1,-1 h 1 l 1,-1 h 1 l 1,-1 h 1 l 1,-1 h 1 l 1,-1 h 1 l 1,-1 h 1 l 1,-1 h 1 l 2,-2 h 1 l 1,-1 h 1 l 1,-1 h 1 l 2,-2 h 1 l 2,-2 h 1 l 1,-1 h 1 l 2,-2 h 1 l 2,-2 h 1 l 3,-3 h 1 l 3,-3 h 1 l 4,-4 h 1 l 19,-19 h 1 v -3 l 1,-1 h 3 l 1,-1 1,1 v 40 l 1,1 v 4 l 2,2 h 1 l 1,1 h 5 l 1,-1 h 1 l 1,-1 h 1 l 1,-1 v -1 l 1,-1 v -42 l -1,-1 v -4 l 3,-3 h 1 l 1,-1 h 1 v -1 l 1,-1 v -1 l 1,-1 v -4 l -1,-1 v -1 l -1,-1 h -1 l -1,-1 h -1 l -1,-1 h -1 l -1,-1 v -44 l -3,-3 h -1 l -1,-1 h -5 l -1,1 h -1 l -3,3 v 38 l -1,1 h -2 l -1,-1 h -2 l -2,-2 1,-1 -1,-1 v -1 l -9,-9 h -1 l -3,-3 h -1 l -2,-2 h -1 l -2,-2 h -1 l -2,-2 h -1 l -2,-2 h -1 l -1,-1 h -1 l -1,-1 h -1 l -1,-1 h -1 l -1,-1 h -1 l -1,-1 h -1 l -1,-1 h -1 l -1,-1 h -1 l -1,-1 h -2 l -1,-1 h -1 l -1,-1 h -2 l -1,-1 h -1 l -1,-1 h -2 l -1,-1 h -2 l -1,-1 h -1 l -1,-1 h -2 l -1,-1 h -2 l -1,-1 h -2 l -1,-1 h -3 l -1,-1 h -2 l -1,-1 h -3 l -1,-1 h -2 l -1,-1 h -3 l -1,-1 h -2 l -1,-1 v -6 l 1,-1 v -6 l 1,-1 v -5 l 1,-1 v -6 l 1,-1 v -6 l 1,-1 v -6 l 1,-1 v -6 l 1,-1 v -6 l 1,-1 v -5 l 1,-1 v -7 l 1,-1 v -5 l 1,-1 v -7 l 1,-1 v -6 l 1,-1 v -6 l 1,-1 v -6 l 1,-1 v -4 l 1,-1 h 5 l 1,-1 h 4 l 3,-3 v -1 l 1,-1 v -5 l 1,-1 -1,-1 v -3 l -1,-1 h -1 l -1,-1 h -4 l -1,1 h -5 l -1,-1 V 54 l 1,-1 v -2 l 1,-1 h 5 l 1,-1 h 11 l 1,-1 h 13 l 1,-1 h 12 l 1,-1 h 12 l 1,-1 h 12 l 1,-1 h 13 l 1,-1 h 12 l 1,-1 h 12 l 1,-1 h 12 l 1,-1 h 13 l 1,-1 h 12 l 1,-1 h 11 l 1,-1 h 13 l 1,-1 h 11 l 1,-1 h 12 l 1,-1 h 12 l 1,-1 h 12 l 1,-1 h 12 l 1,-1 h 12 l 1,-1 h 11 l 1,-1 h 12 l 1,-1 h 11 l 1,-1 h 12 l 1,-1 h 11 l 1,-1 h 12 l 1,-1 h 12 l 1,-1 h 10 l 1,-1 h 6 l 1,-1 h 1 l 2,-2 v -1 l 1,-1 v -2 l 1,-1 V 10 L 725,9 V 6 L 724,5 V 4 L 723,3 V 2 l -1,-1 h -1 l -1,-1 z"
     fill="#CC6600"
     id="path24" />
  <ellipse
     style="opacity:1;fill:#ffffff;stroke-width:1.5172"
     id="path31"
     transform="rotate(-26.302917)"
     ry="40.222004"
     rx="79.123215"
     cy="313.34872"
     cx="45.652351" />
</svg>
